<?xml version="1.0" encoding="UTF-8" standalone="no"?>
<svg
   xmlns:dc="http://purl.org/dc/elements/1.1/"
   xmlns:cc="http://creativecommons.org/ns#"
   xmlns:rdf="http://www.w3.org/1999/02/22-rdf-syntax-ns#"
   xmlns:svg="http://www.w3.org/2000/svg"
   xmlns="http://www.w3.org/2000/svg"
   xmlns:sodipodi="http://sodipodi.sourceforge.net/DTD/sodipodi-0.dtd"
   xmlns:inkscape="http://www.inkscape.org/namespaces/inkscape"
   id="svg1"
   sodipodi:docname="mono-usb.svg"
   viewBox="0 0 793.70079 1122.5197"
   sodipodi:version="0.32"
   _SVGFile__filename="oldscale/apps/usb.svg"
   version="1.0"
   y="0"
   x="0"
   inkscape:version="0.92.2 (5c3e80d, 2017-08-06)"
   width="210mm"
   height="297mm">
  <defs
     id="defs22" />
  <sodipodi:namedview
     id="base"
     bordercolor="#666666"
     inkscape:pageshadow="2"
     inkscape:window-y="-8"
     pagecolor="#ffffff"
     inkscape:window-height="1058"
     inkscape:zoom="2.1185266"
     inkscape:window-x="-8"
     borderopacity="1.0"
     inkscape:current-layer="svg1"
     inkscape:cx="225.32391"
     inkscape:cy="88.641948"
     inkscape:window-width="1858"
     inkscape:pageopacity="0.0"
     showgrid="false"
     units="mm"
     inkscape:window-maximized="1" />
  <circle
     style="opacity:1;vector-effect:none;fill:#6600ff;fill-opacity:1;stroke:#2c2c2c;stroke-width:0.44408083;stroke-linecap:round;stroke-linejoin:miter;stroke-miterlimit:4;stroke-dasharray:none;stroke-dashoffset:0;stroke-opacity:1"
     id="path4518"
     cx="203.62856"
     cy="1001.9678"
     r="31.77796"
     inkscape:export-xdpi="96"
     inkscape:export-ydpi="96" />
  <g
     id="g1780"
     style="stroke:#ffffff"
     transform="translate(-50,1062.5197)">
    <path
       id="path1766"
       style="fill:none;stroke:#ffffff;stroke-width:10.38399982;stroke-linejoin:round"
       transform="matrix(0.96298,0,0,0.96298,2.9614,1.1105)"
       d="m 80.346,8.6985 v 44.54"
       inkscape:connector-curvature="0" />
    <path
       id="path1767"
       style="fill:none;stroke:#ffffff;stroke-width:10.38399982;stroke-linejoin:round"
       transform="matrix(0.96298,0,0,0.96298,2.9614,1.1105)"
       d="M 80.207,43.375 C 64.716,41.3 66.099,24.287 66.099,24.287"
       inkscape:connector-curvature="0" />
    <path
       id="path1768"
       style="fill:none;stroke:#ffffff;stroke-width:10.38399982;stroke-linejoin:round"
       transform="matrix(0.96298,0,0,0.96298,2.9614,1.1105)"
       d="M 80.622,36.682 C 95.561,33.915 94.04,16.21 94.04,16.21"
       inkscape:connector-curvature="0" />
    <path
       id="path1769"
       style="fill:none;stroke:#ffffff;stroke-width:10.38399982;stroke-linecap:round;stroke-linejoin:round"
       transform="matrix(0.96298,0,0,0.96298,2.9614,1.1105)"
       d="m 76.68,8.9752 h 7.331 l -3.596,-4.288 z"
       inkscape:connector-curvature="0" />
    <path
       id="path1770"
       style="fill:none;stroke:#ffffff;stroke-width:10.38399982;stroke-linecap:round;stroke-linejoin:round"
       transform="matrix(0.96298,0,0,0.96298,2.9614,1.1105)"
       d="m 82.974,52.823 c 0,1.374 -1.116,2.49 -2.49,2.49 -1.374,0 -2.49,-1.116 -2.49,-2.49 0,-1.374 1.116,-2.49 2.49,-2.49 1.374,0 2.49,1.116 2.49,2.49 z"
       inkscape:connector-curvature="0" />
    <path
       id="path1771"
       style="fill:none;stroke:#ffffff;stroke-width:10.38399982;stroke-linecap:round;stroke-linejoin:round"
       transform="matrix(0.96298,0,0,0.96298,2.9614,1.1105)"
       d="m 68.727,24.744 c 0,1.374 -1.116,2.49 -2.49,2.49 -1.374,0 -2.49,-1.116 -2.49,-2.49 0,-1.375 1.116,-2.49 2.49,-2.49 1.374,0 2.49,1.115 2.49,2.49 z"
       inkscape:connector-curvature="0" />
    <path
       id="path1772"
       style="fill:none;stroke:#ffffff;stroke-width:10.38399982;stroke-linecap:round;stroke-linejoin:round"
       transform="matrix(0.96298,0,0,0.96298,2.9614,1.1105)"
       d="m 92.637,14.646 c -0.602,0 -1.087,0.485 -1.087,1.087 v 2.529 c 0,0.602 0.485,1.087 1.087,1.087 h 2.529 c 0.602,0 1.087,-0.485 1.087,-1.087 v -2.529 c 0,-0.602 -0.485,-1.087 -1.087,-1.087 z"
       inkscape:connector-curvature="0" />
  </g>
  <g
     id="g1757"
     transform="matrix(0.96298,0,0,0.96298,126.59016,973.07821)"
     inkscape:export-xdpi="96"
     inkscape:export-ydpi="96">
    <path
       id="path767"
       style="fill:none;stroke:#000000;stroke-width:5.19220018;stroke-linejoin:round"
       d="m 80.346,8.6985 v 44.54"
       inkscape:connector-curvature="0" />
    <path
       id="path768"
       style="fill:none;stroke:#000000;stroke-width:5.19220018;stroke-linejoin:round"
       d="M 80.207,43.375 C 64.716,41.3 66.099,24.287 66.099,24.287"
       inkscape:connector-curvature="0" />
    <path
       id="path769"
       style="fill:none;stroke:#000000;stroke-width:5.19220018;stroke-linejoin:round"
       d="M 80.622,36.682 C 95.561,33.915 94.04,16.21 94.04,16.21"
       inkscape:connector-curvature="0" />
    <path
       id="path770"
       style="fill:#000000;fill-rule:evenodd;stroke:#000000;stroke-width:5.19220018;stroke-linecap:round;stroke-linejoin:round"
       d="m 76.68,8.9752 h 7.331 l -3.596,-4.288 z"
       inkscape:connector-curvature="0" />
    <path
       id="path771"
       style="fill:#000000;fill-rule:evenodd;stroke:#000000;stroke-width:5.19220018;stroke-linecap:round;stroke-linejoin:round"
       d="m 82.974,52.823 c 0,1.374 -1.116,2.49 -2.49,2.49 -1.374,0 -2.49,-1.116 -2.49,-2.49 0,-1.374 1.116,-2.49 2.49,-2.49 1.374,0 2.49,1.116 2.49,2.49 z"
       inkscape:connector-curvature="0" />
    <path
       id="path772"
       style="fill:#000000;fill-rule:evenodd;stroke:#000000;stroke-width:5.19220018;stroke-linecap:round;stroke-linejoin:round"
       d="m 68.727,24.744 c 0,1.374 -1.116,2.49 -2.49,2.49 -1.374,0 -2.49,-1.116 -2.49,-2.49 0,-1.375 1.116,-2.49 2.49,-2.49 1.374,0 2.49,1.115 2.49,2.49 z"
       inkscape:connector-curvature="0" />
    <path
       id="rect773"
       style="fill:#000000;fill-rule:evenodd;stroke:#000000;stroke-width:5.19220018;stroke-linecap:round;stroke-linejoin:round"
       d="m 92.637,14.646 c -0.602,0 -1.087,0.485 -1.087,1.087 v 2.529 c 0,0.602 0.485,1.087 1.087,1.087 h 2.529 c 0.602,0 1.087,-0.485 1.087,-1.087 v -2.529 c 0,-0.602 -0.485,-1.087 -1.087,-1.087 z"
       inkscape:connector-curvature="0" />
  </g>
  <metadata
     id="metadata19">
    <rdf:RDF>
      <cc:Work>
        <dc:format>image/svg+xml</dc:format>
        <dc:type
           rdf:resource="http://purl.org/dc/dcmitype/StillImage" />
        <cc:license
           rdf:resource="http://creativecommons.org/publicdomain/zero/1.0/" />
        <dc:publisher>
          <cc:Agent
             rdf:about="http://openclipart.org/">
            <dc:title>Openclipart</dc:title>
          </cc:Agent>
        </dc:publisher>
        <dc:title></dc:title>
      </cc:Work>
      <cc:License
         rdf:about="http://creativecommons.org/publicdomain/zero/1.0/">
        <cc:permits
           rdf:resource="http://creativecommons.org/ns#Reproduction" />
        <cc:permits
           rdf:resource="http://creativecommons.org/ns#Distribution" />
        <cc:permits
           rdf:resource="http://creativecommons.org/ns#DerivativeWorks" />
      </cc:License>
    </rdf:RDF>
  </metadata>
</svg>
